<?xml version="1.0" encoding="utf-8"?>
<!-- Generator: Adobe Illustrator 19.2.1, SVG Export Plug-In . SVG Version: 6.00 Build 0)  -->
<svg version="1.1" id="Layer_1" xmlns="http://www.w3.org/2000/svg" xmlns:xlink="http://www.w3.org/1999/xlink" x="0px" y="0px"
	 viewBox="0 0 50 50" style="enable-background:new 0 0 50 50;" xml:space="preserve">
<style type="text/css">
	.st0{fill:#333745;}
</style>
<g>
	<path class="st0" d="M44.3,20.8l-0.9-0.1c-0.8-0.1-1.8-0.2-2.8-0.2c-0.3-1.2-0.8-2.3-1.4-3.4c0.7-0.8,1.3-1.5,1.8-2.2l0.5-0.6
		l-0.5-0.7c-1.3-1.9-3-3.5-4.8-4.8l-0.7-0.5l-0.6,0.5c-0.6,0.5-1.4,1.2-2.2,1.8c-1.1-0.6-2.2-1-3.4-1.4c0-1-0.1-1.9-0.2-2.8
		l-0.1-0.8l-0.8-0.1c-2.3-0.4-4.6-0.4-6.8,0l-0.8,0.1l0,0.8c-0.1,0.8-0.2,1.8-0.2,2.8c-1.2,0.3-2.3,0.8-3.4,1.4
		c-0.8-0.7-1.5-1.3-2.2-1.8l-0.6-0.5l-0.7,0.5c-1.9,1.3-3.5,3-4.8,4.8l-0.5,0.7L8.8,15c0.5,0.6,1.2,1.4,1.8,2.2
		c-0.6,1.1-1,2.2-1.4,3.4c-1,0-1.9,0.1-2.8,0.2l-0.8,0.1l-0.1,0.8c-0.2,1.2-0.3,2.3-0.3,3.4c0,1.1,0.1,2.3,0.3,3.4l0.1,0.8l0.8,0.1
		c0.8,0.1,1.8,0.2,2.8,0.2c0.3,1.2,0.8,2.3,1.4,3.4C10,33.6,9.4,34.4,8.9,35l-0.5,0.6l0.5,0.7c1.3,1.9,3,3.5,4.8,4.8l0.7,0.5
		l0.6-0.5c0.6-0.6,1.4-1.2,2.2-1.8c1.1,0.6,2.2,1,3.4,1.4c0.1,1,0.1,2,0.2,2.8l0.1,0.8l0.8,0.1c1.2,0.2,2.3,0.3,3.4,0.3
		c1.1,0,2.3-0.1,3.4-0.3l0.8-0.1l0.1-0.8c0.1-0.8,0.2-1.8,0.2-2.8c1.2-0.3,2.3-0.8,3.4-1.4c0.8,0.7,1.5,1.3,2.2,1.8l0.6,0.5l0.7-0.5
		c1.9-1.3,3.5-3,4.8-4.8l0.5-0.7L41.1,35c-0.5-0.6-1.2-1.4-1.8-2.2c0.6-1.1,1-2.2,1.4-3.4c1-0.1,2-0.1,2.8-0.2l0.8-0.1l0.1-0.8
		c0.2-1.2,0.3-2.3,0.3-3.4c0-1.1-0.1-2.3-0.3-3.4L44.3,20.8z M42.4,27.2c-0.8,0.1-1.7,0.1-2.7,0.2l-0.8,0l-0.2,0.8
		c-0.3,1.5-0.9,2.9-1.7,4.2l-0.4,0.7l0.5,0.6c0.6,0.7,1.2,1.4,1.8,2c-0.9,1.2-2,2.2-3.1,3.1c-0.6-0.5-1.3-1.1-2-1.8l-0.6-0.5
		L32.4,37c-1.3,0.8-2.7,1.4-4.2,1.7l-0.8,0.2l0,0.8c0,0.9-0.1,1.9-0.2,2.7c-1.5,0.2-3,0.2-4.5,0c-0.1-0.8-0.1-1.7-0.2-2.7l0-0.8
		l-0.9-0.2c-1.5-0.3-2.9-0.9-4.2-1.7l-0.7-0.4l-0.6,0.5c-0.7,0.6-1.4,1.2-2,1.8c-1.2-0.9-2.2-2-3.1-3.1c0.5-0.6,1.1-1.3,1.8-2
		l0.5-0.6l-0.4-0.7c-0.8-1.3-1.4-2.7-1.7-4.2L11,27.5l-0.8,0c-0.9,0-1.9-0.1-2.7-0.2c-0.1-0.7-0.1-1.5-0.1-2.2c0-0.7,0-1.5,0.1-2.2
		c0.8-0.1,1.7-0.1,2.7-0.2l0.8,0l0.2-0.8c0.3-1.5,0.9-2.9,1.7-4.2l0.4-0.7l-0.5-0.6c-0.6-0.7-1.2-1.4-1.8-2c0.9-1.2,2-2.2,3.1-3.1
		c0.6,0.5,1.3,1.1,2,1.8l0.6,0.5l0.7-0.4c1.3-0.8,2.7-1.4,4.2-1.7l0.8-0.2l0-0.8c0-0.9,0.1-1.9,0.2-2.7c1.5-0.2,3-0.2,4.5,0
		c0.1,0.8,0.1,1.7,0.2,2.7l0,0.8l0.8,0.2c1.5,0.3,2.9,0.9,4.2,1.7l0.7,0.4l0.6-0.5c0.7-0.6,1.4-1.2,2-1.8c1.2,0.9,2.2,2,3.1,3.1
		c-0.5,0.6-1.1,1.3-1.8,2l-0.4,0.5l0.4,0.7c0.8,1.3,1.4,2.7,1.7,4.2l0.2,0.8l0.8,0c0.9,0,1.9,0.1,2.7,0.2c0.1,0.7,0.1,1.5,0.1,2.2
		C42.5,25.7,42.5,26.4,42.4,27.2z"/>
	<path class="st0" d="M25,14.1c-6,0-10.9,4.9-10.9,10.9c0,6,4.9,10.9,10.9,10.9c6,0,10.9-4.9,10.9-10.9C35.8,19,30.9,14.1,25,14.1z
		 M25,33.7c-4.8,0-8.7-3.9-8.7-8.7s3.9-8.7,8.7-8.7s8.7,3.9,8.7,8.7S29.7,33.7,25,33.7z"/>
</g>
</svg>
