<?xml version="1.0" encoding="utf-8"?>
<!-- Generator: Adobe Illustrator 19.2.1, SVG Export Plug-In . SVG Version: 6.00 Build 0)  -->
<svg version="1.1" id="Layer_1" xmlns="http://www.w3.org/2000/svg" xmlns:xlink="http://www.w3.org/1999/xlink" x="0px" y="0px"
	 viewBox="0 0 50 50" style="enable-background:new 0 0 50 50;" xml:space="preserve">
<style type="text/css">
	.st0{fill:#333745;}
</style>
<g>
	<circle class="st0" cx="32.8" cy="18.6" r="1"/>
	<circle class="st0" cx="33.8" cy="24.1" r="1"/>
	<circle class="st0" cx="35.8" cy="20.9" r="1"/>
	<circle class="st0" cx="30.8" cy="21.7" r="1"/>
	<path class="st0" d="M40.8,39.2c-2.4,0-5.1-1.7-6.5-3.4c-2.9-3.1-5.9-4.7-9.2-4.7c-4.4,0-7.4,2.7-9.2,4.7c-1.5,1.6-4.2,3.3-6.6,3.3
		l0,0c-1.5,0-2.7-0.7-3.5-1.9C4.2,35,5.3,27.5,7.1,21.6c0.9-3.1,3-8.6,5.8-9.7c1.9-0.7,3.8-1.1,6-1.1c1.2,0,2.4,0.1,3.5,0.2
		c1,0.1,1.9,0.2,2.8,0.2s1.8-0.1,2.8-0.2c1.1-0.1,2.2-0.2,3.5-0.2c2.2,0,4.1,0.3,6,1.1c2.8,1.1,4.8,6.6,5.8,9.7
		c1.8,5.9,2.9,13.4,1.3,15.7C43.5,38.6,42.3,39.2,40.8,39.2z M25,29.3c3.9,0,7.4,1.7,10.6,5.3c1.2,1.3,3.4,2.7,5.2,2.7
		c0.8,0,1.5-0.3,2-1.1c0.9-1.3,0.5-7.6-1.5-14.1c-1.4-4.7-3.2-7.9-4.7-8.5c-1.6-0.7-3.3-1-5.3-1c-1.1,0-2.2,0.1-3.3,0.2
		c-1,0.1-2,0.2-3,0.2s-2-0.1-3-0.2c-1.1-0.1-2.2-0.2-3.3-0.2c-2,0-3.6,0.3-5.3,1c-1.5,0.6-3.3,3.8-4.7,8.5c-2,6.5-2.4,12.8-1.5,14.1
		c0.5,0.7,1.1,1.1,2,1.1l0,0c1.7,0,3.9-1.4,5.2-2.7C16.5,32.3,19.9,29.3,25,29.3z"/>
	<path class="st0" d="M16.6,25.1c-1.9,0-3.5-1.5-3.5-3.5s1.5-3.5,3.5-3.5s3.5,1.5,3.5,3.5S18.5,25.1,16.6,25.1z M16.6,20
		c-0.9,0-1.6,0.7-1.6,1.6s0.7,1.6,1.6,1.6c0.9,0,1.6-0.7,1.6-1.6S17.5,20,16.6,20z"/>
</g>
</svg>
