<?xml version="1.0" encoding="utf-8"?>
<!-- Generator: Adobe Illustrator 19.2.1, SVG Export Plug-In . SVG Version: 6.00 Build 0)  -->
<svg version="1.1" id="Layer_1" xmlns="http://www.w3.org/2000/svg" xmlns:xlink="http://www.w3.org/1999/xlink" x="0px" y="0px"
	 viewBox="0 0 50 50" style="enable-background:new 0 0 50 50;" xml:space="preserve">
<style type="text/css">
	.st0{fill:#333745;}
</style>
<g>
	<g>
		<path class="st0" d="M41.6,17.4c0.4-1.3,0.6-2.6,0.6-4c0-1.8-0.4-3.6-1.2-5.2c-1.7,0-3.2,0.3-4.5,0.9c-1.3,0.6-2.8,1.6-4.4,2.9
			c-2.1-0.5-4.3-0.8-6.7-0.8c-2.6,0-5,0.3-7.4,0.8c-1.7-1.3-3.2-2.3-4.5-2.9S10.7,8.3,9,8.3c-0.8,1.6-1.2,3.3-1.2,5.2
			c0,1.4,0.2,2.7,0.6,4c-2.2,2.5-3.2,5.7-3.2,9.4c0,3.3,0.5,5.9,1.5,7.9c0.5,1,1.2,1.9,2,2.7c0.8,0.8,1.8,1.4,2.9,1.9
			c1.1,0.5,2.2,0.9,3.3,1.2c1.1,0.3,2.3,0.6,3.6,0.7c1.3,0.2,2.5,0.3,3.5,0.3c1,0,2.1,0.1,3.4,0.1c1.5,0,2.8,0,4-0.1
			c1.2-0.1,2.5-0.2,4.1-0.5c1.5-0.3,2.9-0.7,4-1.1c1.2-0.5,2.3-1.2,3.4-2c1.1-0.9,1.9-1.9,2.5-3.2c1-2,1.5-4.6,1.5-7.9
			C44.8,23.1,43.7,20,41.6,17.4z M38.7,34.7c-0.5,1-1.2,1.9-1.9,2.5c-0.8,0.6-1.7,1.1-2.9,1.4c-1.2,0.4-2.3,0.6-3.3,0.7
			c-1.1,0.1-2.2,0.2-3.5,0.2h-4c-1.3,0-2.5-0.1-3.5-0.2c-1.1-0.1-2.2-0.3-3.3-0.7c-1.2-0.4-2.1-0.8-2.9-1.4
			c-0.8-0.6-1.4-1.4-1.9-2.5c-0.5-1-0.8-2.3-0.8-3.7c0-1.9,0.5-3.5,1.6-4.9c1.1-1.3,2.6-2,4.4-2c0.7,0,2.2,0.2,4.6,0.5
			c1.1,0.2,2.4,0.3,3.7,0.3c1.4,0,2.6-0.1,3.7-0.3c2.4-0.3,4-0.5,4.6-0.5c1.9,0,3.4,0.7,4.4,2c1.1,1.3,1.6,2.9,1.6,4.9
			C39.5,32.5,39.2,33.7,38.7,34.7z"/>
		<path class="st0" d="M19.1,27.3c-0.5-0.5-1.1-0.8-1.7-0.8c-0.7,0-1.2,0.3-1.7,0.8c-0.5,0.5-0.8,1.1-1,1.8c-0.2,0.7-0.3,1.3-0.3,2
			c0,0.6,0.1,1.3,0.3,2c0.2,0.7,0.5,1.3,1,1.8c0.5,0.5,1.1,0.8,1.7,0.8c0.7,0,1.2-0.3,1.7-0.8c0.5-0.5,0.8-1.1,1-1.8
			c0.2-0.7,0.3-1.3,0.3-2c0-0.6-0.1-1.3-0.3-2C19.9,28.5,19.6,27.9,19.1,27.3z"/>
		<path class="st0" d="M34.3,27.3c-0.5-0.5-1.1-0.8-1.7-0.8c-0.7,0-1.2,0.3-1.7,0.8c-0.5,0.5-0.8,1.1-1,1.8c-0.2,0.7-0.3,1.3-0.3,2
			c0,0.6,0.1,1.3,0.3,2c0.2,0.7,0.5,1.3,1,1.8c0.5,0.5,1.1,0.8,1.7,0.8c0.7,0,1.2-0.3,1.7-0.8c0.5-0.5,0.8-1.1,1-1.8
			c0.2-0.7,0.3-1.3,0.3-2c0-0.6-0.1-1.3-0.3-2C35.2,28.5,34.8,27.9,34.3,27.3z"/>
	</g>
</g>
</svg>
