<?xml version="1.0" encoding="utf-8"?>
<!-- Generator: Adobe Illustrator 19.2.1, SVG Export Plug-In . SVG Version: 6.00 Build 0)  -->
<svg version="1.1" id="Layer_1" xmlns="http://www.w3.org/2000/svg" xmlns:xlink="http://www.w3.org/1999/xlink" x="0px" y="0px"
	 viewBox="0 0 50 50" style="enable-background:new 0 0 50 50;" xml:space="preserve">
<style type="text/css">
	.st0{fill:#333745;}
</style>
<g id="XMLID_13_">
	<path id="XMLID_17_" class="st0" d="M33.4,5.4H16.6c-6.8,0-12.4,5.2-12.4,11.7v15.9c0,6.4,5.6,11.7,12.4,11.7h16.8
		c6.8,0,12.4-5.2,12.4-11.7V17.1C45.8,10.6,40.3,5.4,33.4,5.4z M41.6,32.9c0,4.3-3.7,7.7-8.2,7.7H16.6c-4.5,0-8.2-3.5-8.2-7.7V17.1
		c0-4.3,3.7-7.7,8.2-7.7h16.8c4.5,0,8.2,3.5,8.2,7.7V32.9L41.6,32.9z"/>
	<path id="XMLID_81_" class="st0" d="M25,14.8c-5.9,0-10.8,4.6-10.8,10.2S19.1,35.2,25,35.2S35.8,30.6,35.8,25S30.9,14.8,25,14.8z
		 M25,31.2c-3.6,0-6.6-2.8-6.6-6.2s2.9-6.2,6.6-6.2c3.6,0,6.6,2.8,6.6,6.2C31.6,28.4,28.6,31.2,25,31.2z"/>
	<ellipse id="XMLID_83_" class="st0" cx="35.8" cy="14.9" rx="2.6" ry="2.4"/>
</g>
</svg>
