<?xml version="1.0" encoding="utf-8"?>
<!-- Generator: Adobe Illustrator 19.2.1, SVG Export Plug-In . SVG Version: 6.00 Build 0)  -->
<svg version="1.1" id="Layer_1" xmlns="http://www.w3.org/2000/svg" xmlns:xlink="http://www.w3.org/1999/xlink" x="0px" y="0px"
	 viewBox="0 0 50 50" style="enable-background:new 0 0 50 50;" xml:space="preserve">
<style type="text/css">
	.st0{fill:#333745;}
	.st1{fill:#F1F2F2;}
</style>
<g>
	<circle class="st0" cx="25" cy="25" r="20.9"/>
	<g>
		<path class="st1" d="M37.5,26.7v8.6h-5v-8c0-2-0.7-3.4-2.5-3.4c-1.4,0-2.2,0.9-2.6,1.8c-0.1,0.3-0.2,0.8-0.2,1.2v8.4h-5
			c0,0,0.1-13.6,0-15h5v2.1c0,0,0,0,0,0h0v0c0.7-1,1.8-2.5,4.5-2.5C35,19.9,37.5,22.1,37.5,26.7L37.5,26.7z M17,13
			c-1.7,0-2.8,1.1-2.8,2.6c0,1.4,1.1,2.6,2.8,2.6h0c1.7,0,2.8-1.2,2.8-2.6C19.8,14.1,18.7,13,17,13L17,13z M14.5,35.3h5v-15h-5V35.3
			z"/>
	</g>
</g>
</svg>
