<?xml version="1.0" encoding="utf-8"?>
<!-- Generator: Adobe Illustrator 19.2.1, SVG Export Plug-In . SVG Version: 6.00 Build 0)  -->
<svg version="1.1" id="Layer_1" xmlns="http://www.w3.org/2000/svg" xmlns:xlink="http://www.w3.org/1999/xlink" x="0px" y="0px"
	 viewBox="0 0 100 100" style="enable-background:new 0 0 100 100;" xml:space="preserve">
<style type="text/css">
	.st0{fill:none;stroke:#333745;stroke-miterlimit:10;}
</style>
<path class="st0" d="M35.3,24.6"/>
<path class="st0" d="M75.8,36h-6.9v-5.2c0-0.6-0.5-1.1-1.1-1.1h-6.2c-0.6,0-1.1,0.5-1.1,1.1V36H39.6v-5.2c0-0.6-0.5-1.1-1.1-1.1
	h-6.3c-0.6,0-1.1,0.5-1.1,1.1V36l-6.9,0c-4.8,0.5-7.5,3.3-7.7,8.2c0.6,10.1,1.3,20.2,1.9,30.3l0.2,4.4c0.7,4.7,3.6,7.4,8.5,7.8h45.9
	c0,0,0.1,0,0.1,0c4.8-0.4,7.7-3.1,8.6-7.9c0.5-10.2,1.1-20.3,1.5-30.3c0.1-1.4,0.2-2.9,0.3-4.3C83.3,39.2,80.7,36.4,75.8,36z"/>
<path class="st0" d="M52.9,58.6c-2-1.5-3.9-1.5-5.8,0c-1.5,1.9-1.5,3.7,0,5.7c1.9,1.6,3.9,1.6,5.8,0C54.4,62.3,54.4,60.4,52.9,58.6z
	"/>
<path class="st0" d="M39.5,60.5c1.1-1.3,1.1-2.7,0-4.1c-1.4-1-2.7-1-4,0c-1,1.4-1,2.8,0,4.1C36.8,61.5,38.1,61.5,39.5,60.5z"/>
<path class="st0" d="M40.2,65.6c-0.4-0.1-0.8-0.1-1.1-0.1c-1,0-1.7,0.3-2.2,1c-0.4,0.4-0.6,1-0.6,1.6c0.1,1.6,1.1,2.5,2.9,2.7
	c0.6,0,1.2-0.2,1.6-0.5c0.8-0.5,1.1-1.3,1.1-2.1C41.8,66.9,41.2,66.1,40.2,65.6z"/>
<path class="st0" d="M45.9,50.5c-0.1-1.7-1-2.6-2.7-2.8c-1.7,0.1-2.6,1.1-2.8,2.8c0.1,1.8,1.1,2.7,2.8,2.9
	C44.9,53.2,45.8,52.2,45.9,50.5z"/>
<path class="st0" d="M45,72c-1.1,1.3-1.1,2.6,0,3.8c1.2,1.1,2.6,1.1,4,0c1.1-1.2,1.1-2.5,0-3.8C47.6,71,46.2,71,45,72z"/>
<path class="st0" d="M55,51c1-1.4,1-2.7,0-4c-1.4-1-2.7-1-4.1,0c-1,1.3-1,2.6,0,4C52.3,52.1,53.7,52.1,55,51z"/>
<path class="st0" d="M58.2,70.1c-0.5-0.3-1-0.5-1.5-0.5c-1.8,0.1-2.7,1.1-2.9,2.9c0.1,1.7,1.1,2.6,2.9,2.8c1.7-0.1,2.6-1.1,2.8-2.8
	C59.4,71.4,59,70.6,58.2,70.1z"/>
<path class="st0" d="M58.1,54.8c0.2,1.6,1.1,2.6,2.8,2.9c1.7-0.3,2.7-1.2,2.9-2.9c-0.1-1.7-1.1-2.6-2.9-2.8
	C59.2,52.2,58.3,53.1,58.1,54.8z"/>
<path class="st0" d="M60.5,62.5c-1.1,1.2-1.1,2.5,0,3.9c1.3,1.1,2.6,1.1,4,0c1.1-1.2,1.1-2.5,0-3.9C63.1,61.4,61.7,61.4,60.5,62.5z"
	/>
<path class="st0" d="M50,41.1c-11.2,0-20.3,9.1-20.3,20.3S38.8,81.8,50,81.8s20.3-9.1,20.3-20.3S61.2,41.1,50,41.1z"/>
<path class="st0" d="M85.3,13.4l-70.2,0c-4.5,0.4-10,5.2-10,10.1c0,2.5,0.1,5,0.5,7.9c0.2,0.8,1.7,3.4,11.3,3.4
	c9.7,0,10.8-2.7,11-3.6c0-0.1,0-0.2,0-0.3c-0.4-2.3,0.4-3.4,2.4-3.9h39.5c2,0.5,2.7,1.7,2.3,3.9c0,0.2,0,0.5,0.1,0.7
	c0.3,0.5,2.1,3.2,11.3,3.2c9.1,0,10.6-2.8,10.8-3.3c0-0.1,0-0.2,0.1-0.2l0.1-0.8c0.3-2.4,0.6-4.6,0.6-6.9
	C95,18.8,90.3,13.9,85.3,13.4z"/>
</svg>
