<?xml version="1.0" encoding="utf-8"?>
<!-- Generator: Adobe Illustrator 19.2.1, SVG Export Plug-In . SVG Version: 6.00 Build 0)  -->
<svg version="1.1" id="Capa_1" xmlns="http://www.w3.org/2000/svg" xmlns:xlink="http://www.w3.org/1999/xlink" x="0px" y="0px"
	 viewBox="0 0 106.1 106.1" style="enable-background:new 0 0 106.1 106.1;" xml:space="preserve">
<style type="text/css">
	.st0{fill:#333745;}
</style>
<g>
	<path class="st0" d="M53,106.1c13.6,0,27.2-5.2,37.5-15.5c20.7-20.7,20.7-54.3,0-75C80.2,5.2,66.6,0,53,0
		C39.4,0,25.9,5.2,15.5,15.5c-20.7,20.7-20.7,54.3,0,75C25.9,100.9,39.4,106.1,53,106.1z M21.3,21.3C30,12.6,41.5,8.2,53,8.2
		c11.5,0,23,4.4,31.7,13.1c17.5,17.5,17.5,46,0,63.5C76,93.5,64.5,97.9,53,97.9c-11.5,0-23-4.4-31.7-13.1c-2.2-2.2-4.1-4.5-5.7-7
		C4.1,60.3,6,36.6,21.3,21.3z M52,73c0-2.5,1.3-4.5,2.9-4.5h24.3c1.6,0,2.9,2,2.9,4.5c0,2.5-1.3,4.5-2.9,4.5H54.9
		C53.3,77.5,52,75.5,52,73z M31.7,30.7c0-4.1,3.1-7.5,7-7.5c3.8,0,7,3.3,7,7.5c0,4.1-3.1,7.5-7,7.5C34.9,38.1,31.7,34.8,31.7,30.7z
		 M61.3,30.7c0-4.1,3.1-7.5,7-7.5c3.8,0,7,3.3,7,7.5c0,4.1-3.1,7.5-7,7.5C64.4,38.1,61.3,34.8,61.3,30.7z"/>
</g>
</svg>
