<?xml version="1.0" encoding="utf-8"?>
<!-- Generator: Adobe Illustrator 19.2.1, SVG Export Plug-In . SVG Version: 6.00 Build 0)  -->
<svg version="1.1" id="Layer_1" xmlns="http://www.w3.org/2000/svg" xmlns:xlink="http://www.w3.org/1999/xlink" x="0px" y="0px"
	 viewBox="0 0 283.5 174.9" style="enable-background:new 0 0 283.5 174.9;" xml:space="preserve">
<style type="text/css">
	.st0{fill:none;stroke:#333745;stroke-width:3;stroke-miterlimit:10;}
	.st1{fill:#333745;}
	.st2{fill:#EA2E49;}
</style>
<path class="st0" d="M123.5,158.6l39.8-97.9L123.5,158.6z"/>
<g>
	<path class="st1" d="M215.1,45.5h-14V19.8h-3.2v28.8h17.2V45.5z M187.2,45.5h-14V19.8H170v28.8h17.2V45.5z M146.6,45.5V34.4h8.6
		v-3.2h-8.6V23h11.6v-3.2h-14.7v28.8h14.7v-3.2H146.6z M145.1,32.7h9.7H145.1z M121.8,45.5h-7.3V34.4l7.6,0.1c2.9,0,5.2,2.6,5.2,5.5
		C127.3,43,124.8,45.5,121.8,45.5z M121.6,23c2.3,0,4.1,1.9,4.1,4.1c0,2.3-1.9,4.2-4.1,4.2v0l-7.1-0.1V23H121.6z M126.4,32.7
		c1.5-1.4,2.5-3.3,2.5-5.5c0-4-3.3-7.3-7.3-7.3h-10.3v28.8h10.5c4.8,0,8.6-3.9,8.6-8.6C130.4,36.9,128.8,34.2,126.4,32.7z
		 M80.8,36.2l4.6-9.3l4.5,9.3H80.8z M85.4,19.8l-14,28.8h3.4l4.6-9.5h12l4.6,9.5h3.4L85.4,19.8z M56,34.1L56,34.1
		c-0.2-0.2-1.9-1.8-5-2.5c-0.4-0.1-0.8-0.2-1.2-0.3c-1.1-0.2-1.7-0.3-2.4-0.8c-1.4-0.8-2.2-2.2-2.2-3.6c0-2.3,1.8-4.1,4.1-4.1
		c1.8,0,3.3,0.6,4.3,1.9l2.6-1.5c-1.6-2.2-4-3.4-6.9-3.4c-3.9,0-7.1,3.2-7.1,7.1c0,2.6,1.4,4.9,3.7,6.2c1.2,0.7,2.2,0.9,3.3,1.1
		c0.3,0.1,0.7,0.1,1.1,0.3c2.1,0.5,3.3,1.5,3.4,1.6c1.2,1.3,1.3,2.2,1.3,3.6c0,3.2-2.6,5.8-5.8,5.8c-2.4,0-4.6-1.5-5.4-3.7
		c-0.2-0.5-0.4-1.1-0.4-1.7v0l-2.8,1.8c0.1,0.3,0.2,0.6,0.3,1c1.3,3.4,4.6,5.7,8.2,5.7c4.9,0,8.8-4,8.8-8.8
		C58.1,37.7,57.8,36,56,34.1z M27.5,19.8h-3.2v28.8h3.2V19.8z"/>
	<path class="st1" d="M235.3,36.2l4.6-9.3l4.5,9.3H235.3z M239.9,19.8l-14,28.8h3.4l4.6-9.5h12l4.6,9.5h3.4L239.9,19.8z"/>
	<path class="st2" d="M106,94c2.1,0,4.2-0.5,6.1-1.4l0.9-0.4V79h-11.3v3.1h8.2v8.2c-1.2,0.4-2.6,0.7-3.9,0.7
		c-6.2,0-11.3-5.1-11.3-11.3c0-6.2,5.1-11.3,11.3-11.3c1.5,0,2.9,0.3,4.3,0.9l1.2-2.9c-1.7-0.7-3.6-1.1-5.5-1.1
		c-8,0-14.4,6.4-14.4,14.4S98,94,106,94z M81.9,94L82,65.2h-3.1l0.1,24.7L63.4,65.3h-3.2V94h3.2V70.8L78.2,94H81.9z M36.6,94
		c8,0,14.4-6.4,14.4-14.4s-6.4-14.4-14.4-14.4c-8,0-14.4,6.4-14.4,14.4S28.6,94,36.6,94z M36.6,68.4c6.2,0,11.2,5,11.2,11.2
		s-5,11.2-11.2,11.2c-6.2,0-11.2-5-11.2-11.2S30.4,68.4,36.6,68.4z"/>
	<path class="st1" d="M255.5,78h-14.9v-3.9h-3V78h-15.9v27l-3.2,4.6l2.5,1.8l3.8-5.4V81h30.8V78z M226.5,99.4H239v8.7h-5.2v3h8.2
		V99.4h9.3v4.1h3v-7.1h-9.7l7.7-6.5V85h-24.7v3h21.7v0.4c-3.2,2.6-5.8,4.9-8.8,7.5l-7.6-6.6l-2,2.3l5.5,4.8h-10V99.4z M204.1,98.2
		l4.5-4.5l-2.1-2.1l-4.5,4.5L204.1,98.2z M213.7,78.1h-8.4v-4h-3v4h-14.7v-4h-3v4h-8.4v3h8.4v3.8h3v-3.8h14.7v3.8h3v-3.8h8.4V78.1z
		 M213.8,108h-15.3V84.7h-3V108h-8.7V89.2h-3V108h-7.7v3h37.7V108z"/>
	<path class="st2" d="M253.9,136.6v-3.4h1.4h0l0.1,0c0.9,0.1,1.7,0.7,1.7,1.7c0,0.9-0.8,1.7-1.7,1.7H253.9z M258.6,141l-2.4-3.6
		c1.1-0.4,1.8-1.3,1.8-2.5c0-1.5-1.2-2.6-2.6-2.7l0,0h-2.5l0,8.8h1l0-3.5h1.2l2.3,3.5H258.6z M246.9,140.1v-3.4h2.6v-1h-2.6v-2.5
		h3.5v-1h-4.5v8.8h4.5v-1H246.9z M246.4,136.2h3H246.4z M239.2,137.5h1.5c1.5,0,2.6-1.2,2.6-2.7c0-1.4-1.2-2.6-2.6-2.6l0,0h-2.5v8.8
		h1V137.5z M239.2,133.2h1.4h0l0.1,0c0.9,0.1,1.7,0.7,1.7,1.7c0,0.9-0.7,1.7-1.7,1.7h-1.5V133.2z M231,141c2.4,0,4.4-2,4.4-4.4
		c0-2.4-2-4.4-4.4-4.4c-2.4,0-4.4,2-4.4,4.4C226.6,139,228.6,141,231,141z M231,133.2c1.9,0,3.4,1.5,3.4,3.4c0,1.9-1.5,3.4-3.4,3.4
		c-1.9,0-3.4-1.5-3.4-3.4C227.6,134.7,229.1,133.2,231,133.2z M224.4,140.1h-4.3v-7.8h-1v8.8h5.3V140.1z M213.1,140.1v-3.4h2.6v-1
		h-2.6v-2.5h3.5v-1h-4.5v8.8h4.5v-1H213.1z M212.7,136.2h3H212.7z M208.6,132.2l-3.4,7.3l-3.3-7.3h-1.1l4,8.8h0.7l4.1-8.8H208.6z
		 M194.8,140.1v-3.4h2.6v-1h-2.6v-2.5h3.5v-1h-4.5v8.8h4.5v-1H194.8z M194.3,136.2h3H194.3z M186.6,141c2.4,0,4.4-2,4.4-4.4
		c0-2.4-2-4.4-4.4-4.4h-1.7v8.8H186.6z M185.8,133.2h0.7c1.9,0,3.4,1.5,3.4,3.4c0,1.9-1.5,3.4-3.4,3.4h-0.7V133.2z M174.6,140.1
		h-2.2v-3.4l2.3,0c0.9,0,1.6,0.8,1.6,1.7C176.2,139.3,175.5,140.1,174.6,140.1z M174.5,133.2c0.7,0,1.3,0.6,1.3,1.3
		c0,0.7-0.6,1.3-1.3,1.3v0l-2.2,0v-2.5H174.5z M176,136.1c0.5-0.4,0.8-1,0.8-1.7c0-1.2-1-2.2-2.2-2.2h-3.1v8.8h3.2
		c1.5,0,2.6-1.2,2.6-2.6C177.2,137.4,176.7,136.6,176,136.1z M165.3,140.1v-3.4h2.6v-1h-2.6v-2.5h3.5v-1h-4.5v8.8h4.5v-1H165.3z
		 M164.8,136.2h3H164.8z M153.2,141l2-7l2.1,7h0.9l3.5-8.8h-1l-2.9,7.2l-2.2-7.2h-0.9l-2.1,7.2l-2.9-7.2h-1l3.5,8.8H153.2z"/>
	<path class="st1" d="M112.7,140.1v-3.4h2.6v-1h-2.6v-2.5h3.5v-1h-4.5v8.8h4.5v-1H112.7z M112.2,136.2h3H112.2z M104.3,136.6v-3.4
		h1.4h0l0.1,0c0.9,0.1,1.7,0.7,1.7,1.7c0,0.9-0.8,1.7-1.7,1.7H104.3z M109,141l-2.4-3.6c1.1-0.4,1.8-1.3,1.8-2.5
		c0-1.5-1.2-2.6-2.6-2.7l0,0h-2.5l0,8.8h1l0-3.5h1.2l2.3,3.5H109z M97.5,141c1.6,0,3-1.3,3-3v-5.8h-0.9v5.8c0,1.1-0.9,2-2,2
		s-2-0.9-2-2v-5.8h-0.9v5.8C94.5,139.7,95.8,141,97.5,141z M92,132.2h-5.7v1h2.4v7.8h1v-7.8H92V132.2z M83.8,140h-1l-0.1,0h-0.1
		c-1.9,0-3.4-1.5-3.4-3.4c0-1.9,1.5-3.4,3.4-3.4h0.2h1v-1h-1.2c-2.4,0-4.4,2-4.4,4.4c0,2.4,2,4.4,4.4,4.4h1.2V140z M72.2,140.1v-3.4
		h2.6v-1h-2.6v-2.5h3.5v-1h-4.5v8.8h4.5v-1H72.2z M71.7,136.2h3H71.7z M68.7,132.2h-5.7v1h2.4v7.8h1v-7.8h2.4V132.2z M60,132.2h-1
		v8.8h1V132.2z M55.1,132.2v4h-4.2v-4h-1v8.8h1v-3.8h4.2v3.8h1v-8.8H55.1z M47.6,140h-1l-0.1,0h-0.1c-1.9,0-3.4-1.5-3.4-3.4
		c0-1.9,1.5-3.4,3.4-3.4h0.2h1v-1h-1.2c-2.4,0-4.4,2-4.4,4.4c0,2.4,2,4.4,4.4,4.4h1.2V140z M34.6,136.6v-3.4H36h0l0.1,0
		c0.9,0.1,1.7,0.7,1.7,1.7c0,0.9-0.8,1.7-1.7,1.7H34.6z M39.3,141l-2.4-3.6c1.1-0.4,1.8-1.3,1.8-2.5c0-1.5-1.2-2.6-2.6-2.7l0,0h-2.5
		l0,8.8h1l0-3.5h1.2l2.3,3.5H39.3z M25.4,137.2l1.4-2.8l1.4,2.8H25.4z M26.8,132.2l-4.3,8.8h1l1.4-2.9h3.7L30,141h1L26.8,132.2z"/>
</g>
</svg>
