<?xml version="1.0" encoding="utf-8"?>
<!-- Generator: Adobe Illustrator 19.2.1, SVG Export Plug-In . SVG Version: 6.00 Build 0)  -->
<svg version="1.1" id="Layer_3" xmlns="http://www.w3.org/2000/svg" xmlns:xlink="http://www.w3.org/1999/xlink" x="0px" y="0px"
	 viewBox="0 0 100 100" style="enable-background:new 0 0 100 100;" xml:space="preserve">
<style type="text/css">
	.st0{fill:none;stroke:#000000;stroke-miterlimit:10;}
</style>
<path class="st0" d="M35.3,24.6"/>
<path class="st0" d="M35.3,27.9v-6.4c0-2.6,1.8-4.8,3.9-4.8h21.5c2.2,0,3.9,2.1,3.9,4.8v6.4"/>
<path class="st0" d="M33.6,60.5v-4.1c0-1.7-1.4-3.1-3.1-3.1h-2.7c-1.7,0-3.1,1.4-3.1,3.1v2.2"/>
<path class="st0" d="M33.6,59.4"/>
<path class="st0" d="M75.3,58.7v-2.3c0-1.7-1.4-3.1-3.1-3.1h-2.7c-1.7,0-3.1,1.4-3.1,3.1v4.1"/>
<path class="st0" d="M75.3,57.6"/>
<path class="st0" d="M6,51.9V33.3c0-3,2.4-5.4,5.4-5.4h77.2c3,0,5.4,2.4,5.4,5.4v18.6"/>
<path class="st0" d="M88.6,84.6H11.4c-3,0-5.4-2.4-5.4-5.4v-27c2.5,1.3,9.1,4.4,18.7,6.9v2.3c0,1.7,1.4,3.1,3.1,3.1h2.7
	c1.7,0,3.1-1.4,3.1-3.1v-0.4c5.5,0.9,11.1,1.4,16.6,1.4c5.4,0,10.9-0.4,16.3-1.3v0.4c0,1.7,1.4,3.1,3.1,3.1h2.7
	c1.7,0,3.1-1.4,3.1-3.1v-2.2c9.6-2.4,16.2-5.6,18.7-6.9v27C94,82.2,91.6,84.6,88.6,84.6z"/>
<line class="st0" x1="27.8" y1="60.2" x2="30.5" y2="60.2"/>
<line class="st0" x1="69.5" y1="60.2" x2="72.2" y2="60.2"/>
</svg>
