<?xml version="1.0" encoding="utf-8"?>
<!-- Generator: Adobe Illustrator 19.2.1, SVG Export Plug-In . SVG Version: 6.00 Build 0)  -->
<svg version="1.1" id="Layer_2" xmlns="http://www.w3.org/2000/svg" xmlns:xlink="http://www.w3.org/1999/xlink" x="0px" y="0px"
	 viewBox="0 0 100 100" style="enable-background:new 0 0 100 100;" xml:space="preserve">
<style type="text/css">
	.st0{fill:none;stroke:#000000;stroke-width:0.75;stroke-miterlimit:10;}
</style>
<path class="st0" d="M28.5,79.8L66.1,42c1.1,0.3,2.2,0.5,3.3,0.5c3.2,0,6.2-1.2,8.5-3.5c2.8-2.8,4.1-6.9,3.3-10.8v-0.1
	c-0.1-0.1-0.2-0.2-0.4-0.3c-0.2,0-0.3,0-0.4,0.1l-6.9,6.9L66.9,33l-1.8-6.6l6.9-6.9c0.1-0.1,0.2-0.3,0.1-0.5s-0.2-0.3-0.4-0.3
	c-0.8-0.1-1.5-0.2-2.3-0.2c-3.2,0-6.2,1.2-8.5,3.5s-3.5,5.3-3.5,8.5c0,1.1,0.2,2.2,0.4,3.2L20.2,71.5c-1.1,1.1-1.7,2.6-1.7,4.1
	s0.6,3,1.7,4.1s2.6,1.7,4.1,1.7C25.9,81.5,27.4,80.9,28.5,79.8z"/>
<path class="st0" d="M26.7,75.6c0-1.4-1.2-2.6-2.6-2.6s-2.6,1.2-2.6,2.6s1.2,2.6,2.6,2.6S26.7,77.1,26.7,75.6z"/>
</svg>
